<svg xmlns="http://www.w3.org/2000/svg" version="1.1" xmlns:xlink="http://www.w3.org/1999/xlink" xmlns:svgjs="http://svgjs.dev/svgjs" width="1500" height="1500" viewBox="0 0 1500 1500"><rect width="1500" height="1500" fill="#ffffff"></rect><g transform="matrix(0.6666666666666666,0,0,0.6666666666666666,249.39393939393938,438.58569500674764)"><svg viewBox="0 0 396 247" data-background-color="#ffffff" preserveAspectRatio="xMidYMid meet" height="935" width="1500" xmlns="http://www.w3.org/2000/svg" xmlns:xlink="http://www.w3.org/1999/xlink"><g id="tight-bounds" transform="matrix(1,0,0,1,0.2400000000000091,-0.09999999999999432)"><svg viewBox="0 0 395.52 247.2" height="247.2" width="395.52"><g><svg></svg></g><g><svg viewBox="0 0 395.52 247.2" height="247.2" width="395.52"><g transform="matrix(1,0,0,1,75.54432,87.04306915809103)"><svg viewBox="0 0 244.43135999999998 73.11386168381793" height="73.11386168381793" width="244.43135999999998"><g><svg viewBox="0 0 244.43135999999998 73.11386168381793" height="73.11386168381793" width="244.43135999999998"><g><svg viewBox="0 0 244.43135999999998 73.11386168381793" height="73.11386168381793" width="244.43135999999998"><g><svg viewBox="0 0 244.43135999999998 73.11386168381793" height="73.11386168381793" width="244.43135999999998"><g id="textblocktransform"><svg viewBox="0 0 244.43135999999998 73.11386168381793" height="73.11386168381793" width="244.43135999999998" id="textblock"><g><svg viewBox="0 0 244.43135999999998 39.43412334975369" height="39.43412334975369" width="244.43135999999998"><g transform="matrix(1,0,0,1,0,0)"><svg width="244.43135999999998" viewBox="2.15 -34.8 284.17 45.849999999999994" height="39.43412334975369" data-palette-color="#12372a"><path d="M16.1 0.8L16.1 0.8Q11.9 0.8 8.78-0.88 5.65-2.55 3.9-5.9 2.15-9.25 2.15-14.15L2.15-14.15Q2.15-18.65 3.58-22.43 5-26.2 7.6-28.98 10.2-31.75 13.8-33.27 17.4-34.8 21.8-34.8L21.8-34.8Q25.9-34.8 27.95-33.93 30-33.05 30-30.8L30-30.8Q30-29.6 29.58-28.75 29.15-27.9 28.65-27.9L28.65-27.9Q28.2-27.9 27.63-28.2 27.05-28.5 26.35-28.85L26.35-28.85Q25.15-29.45 23.73-30.13 22.3-30.8 19.95-30.8L19.95-30.8Q16.9-30.8 14.38-28.8 11.85-26.8 10.33-23.28 8.8-19.75 8.8-15.05L8.8-15.05Q8.8-11.1 9.98-8.45 11.15-5.8 13.1-4.5 15.05-3.2 17.35-3.2L17.35-3.2Q19.25-3.2 20.75-3.93 22.25-4.65 23.38-5.6 24.5-6.55 25.4-7.28 26.3-8 27-8L27-8Q27.55-8 27.93-7.75 28.3-7.5 28.3-6.7L28.3-6.7Q28.3-4.75 26.65-3.05 25-1.35 22.25-0.28 19.5 0.8 16.1 0.8ZM39.45 0.75L39.45 0.75Q35.15 0.75 32.77-1.78 30.4-4.3 30.4-9.2L30.4-9.2Q30.4-12.45 31.47-15.23 32.55-18 34.4-20.1 36.25-22.2 38.67-23.38 41.1-24.55 43.8-24.55L43.8-24.55Q48.1-24.55 50.37-22 52.65-19.45 52.65-14.3L52.65-14.3Q52.65-11.2 51.62-8.47 50.6-5.75 48.8-3.68 47-1.6 44.6-0.43 42.2 0.75 39.45 0.75ZM40.65-3L40.65-3Q42.55-3 43.92-4.4 45.3-5.8 46.02-8.25 46.75-10.7 46.75-13.75L46.75-13.75Q46.75-17 45.77-18.9 44.8-20.8 42.55-20.8L42.55-20.8Q40.7-20.8 39.27-19.4 37.85-18 37.07-15.58 36.3-13.15 36.3-10.05L36.3-10.05Q36.3-6.6 37.4-4.8 38.5-3 40.65-3ZM75.4 0.5L71.84 0.5Q71.3 0.5 71.02-0.03 70.75-0.55 70.67-1.2 70.59-1.85 70.59-2.25L70.59-2.25Q70.59-2.95 70.7-4.05 70.8-5.15 70.95-6.38 71.09-7.6 71.25-8.5L71.25-8.5 72.09-13.7Q72.25-14.7 72.4-15.58 72.55-16.45 72.55-17.45L72.55-17.45Q72.55-18.2 72.25-18.6 71.95-19 71.45-19L71.45-19Q70.8-19 69.3-17.75 67.8-16.5 66.09-14.18 64.4-11.85 63.02-8.6 61.65-5.35 61.25-1.35L61.25-1.35 59.95-8.75Q61.45-13.1 63.32-16.1 65.2-19.1 67.15-20.95 69.09-22.8 70.92-23.65 72.75-24.5 74.15-24.5L74.15-24.5Q75.65-24.5 76.57-23.95 77.5-23.4 77.92-22.43 78.34-21.45 78.34-20.15L78.34-20.15Q78.34-18.9 78.17-17.68 78-16.45 77.8-15.15L77.8-15.15 75.4 0.5ZM56.9 0.7L56.9 0.7Q56.25 0.7 55.92 0.48 55.6 0.25 55.57-0.7 55.55-1.65 55.8-3.75L55.8-3.75 58.15-24.55 61.65-24.55Q62.4-24.55 63-23.45 63.6-22.35 63.6-20.95L63.6-20.95Q63.6-20.3 63.22-18.93 62.85-17.55 62.35-16.03 61.85-14.5 61.45-13.35L61.45-13.35 60.15-9.25 62-9.55 61.2-1.35Q61.15-0.85 60.6-0.45 60.05-0.05 59.3 0.2 58.55 0.45 57.87 0.58 57.2 0.7 56.9 0.7ZM89.59 0.8L89.59 0.8Q85.64 0.8 83.54-1.65 81.44-4.1 81.44-8.7L81.44-8.7Q81.44-13.2 83.22-16.8 84.99-20.4 88.07-22.48 91.14-24.55 95.09-24.55L95.09-24.55Q97.19-24.55 98.79-24 100.39-23.45 100.39-21.7L100.39-21.7Q100.39-20.95 100.14-20.2 99.89-19.45 99.49-18.95 99.09-18.45 98.69-18.45L98.69-18.45Q98.49-18.45 98.14-18.57 97.79-18.7 97.54-18.85L97.54-18.85Q96.99-19.2 96.22-19.65 95.44-20.1 94.52-20.45 93.59-20.8 92.59-20.8L92.59-20.8Q91.04-20.8 89.82-19.35 88.59-17.9 87.89-15.5 87.19-13.1 87.19-10.3L87.19-10.3Q87.19-6.6 88.32-5.38 89.44-4.15 91.59-4.15L91.59-4.15Q93.39-4.15 94.64-4.78 95.89-5.4 97.04-6.2L97.04-6.2Q97.49-6.5 97.74-6.58 97.99-6.65 98.19-6.65L98.19-6.65Q98.44-6.65 98.59-6.45 98.74-6.25 98.74-6L98.74-6Q98.74-5.1 97.99-3.93 97.24-2.75 95.94-1.68 94.64-0.6 93.02 0.1 91.39 0.8 89.59 0.8ZM107.79 0.8L104.29 0.8Q103.44 0.8 103.19-0.18 102.94-1.15 102.94-2.2L102.94-2.2Q102.94-4 103.12-5.4 103.29-6.8 103.49-8.5L103.49-8.5 105.29-24.55 108.79-24.55Q109.79-24.55 110.09-23.45 110.39-22.35 110.39-20.95L110.39-20.95Q110.39-20.25 110.29-19.48 110.19-18.7 109.99-17.1L109.99-17.1 109.04-8.95Q108.74-6.35 108.49-4.6 108.24-2.85 108.09-1.6 107.94-0.35 107.79 0.8L107.79 0.8ZM108.69-27.4L108.69-27.4Q107.29-27.4 106.27-28.35 105.24-29.3 105.24-30.85L105.24-30.85Q105.24-32.7 106.44-33.73 107.64-34.75 109.19-34.75L109.19-34.75Q110.64-34.75 111.62-33.9 112.59-33.05 112.59-31.35L112.59-31.35Q112.59-29.65 111.44-28.53 110.29-27.4 108.69-27.4ZM121.54 0.8L121.54 0.8Q117.69 0.8 115.59-1.63 113.49-4.05 113.49-8.3L113.49-8.3Q113.49-11.85 114.49-14.8 115.49-17.75 117.29-19.95 119.09-22.15 121.51-23.35 123.94-24.55 126.79-24.55L126.79-24.55Q130.19-24.55 131.99-23.1 133.79-21.65 133.79-18.95L133.79-18.95Q133.79-16.2 131.96-14.15 130.14-12.1 126.71-10.65 123.29-9.2 118.54-8.2L118.54-8.2 117.89-11.2Q120.64-11.55 122.94-12.4 125.24-13.25 126.64-14.68 128.04-16.1 128.04-18.05L128.04-18.05Q128.04-19.4 127.51-20.1 126.99-20.8 125.64-20.8L125.64-20.8Q123.59-20.8 122.16-19.3 120.74-17.8 120.01-15.4 119.29-13 119.29-10.3L119.29-10.3Q119.29-6.65 120.41-5.43 121.54-4.2 123.74-4.2L123.74-4.2Q126.04-4.2 127.76-4.93 129.49-5.65 130.74-6.45L130.74-6.45Q131.14-6.7 131.44-6.85 131.74-7 131.94-7L131.94-7Q132.19-7 132.34-6.8 132.49-6.6 132.49-6.35L132.49-6.35Q132.49-5.45 131.69-4.25 130.89-3.05 129.41-1.9 127.94-0.75 125.94 0.03 123.94 0.8 121.54 0.8ZM141.94-1.2L141.94-1.2 140.74-8.75Q142.59-13.55 144.51-17.07 146.44-20.6 148.44-22.55 150.44-24.5 152.49-24.5L152.49-24.5Q153.64-24.5 154.14-23.78 154.64-23.05 154.64-21.95L154.64-21.95Q154.64-20.95 154.41-20.03 154.19-19.1 153.76-18.5 153.34-17.9 152.74-17.9L152.74-17.9Q152.19-17.9 151.51-18.25 150.84-18.6 149.69-18.6L149.69-18.6Q148.94-18.6 147.78-17.05 146.64-15.5 145.41-12.93 144.19-10.35 143.24-7.28 142.28-4.2 141.94-1.2ZM137.74 0.7L137.74 0.7Q137.09 0.7 136.76 0.48 136.44 0.25 136.41-0.7 136.39-1.65 136.64-3.75L136.64-3.75 138.99-24.55 142.49-24.55Q143.24-24.55 143.84-23.45 144.44-22.35 144.44-20.95L144.44-20.95Q144.44-20.3 144.06-18.93 143.69-17.55 143.19-16.03 142.69-14.5 142.28-13.35L142.28-13.35 140.99-9.25 142.84-9.55 141.94-1.2Q141.89-0.7 141.34-0.33 140.78 0.05 140.06 0.28 139.34 0.5 138.69 0.6 138.03 0.7 137.74 0.7ZM162.23 11.05L162.23 11.05Q159.83 11.05 157.86 10.33 155.88 9.6 154.71 8.05 153.53 6.5 153.53 4L153.53 4Q153.53 3.15 154.08 3.15L154.08 3.15Q154.33 3.15 154.73 3.35 155.13 3.55 155.78 3.9L155.78 3.9Q156.68 4.4 158.21 5.18 159.73 5.95 161.38 6.55 163.03 7.15 164.28 7.15L164.28 7.15Q165.08 7.15 165.81 6.8 166.53 6.45 167.21 5.48 167.88 4.5 168.48 2.68 169.08 0.85 169.63-2.1L169.63-2.1 172.13-15.65 171.23-16.85 171.28-23.25Q174.48-23.65 175.93-24.05 177.38-24.45 177.93-24.45L177.93-24.45Q178.43-24.45 178.43-23.85L178.43-23.85Q178.43-23.6 177.81-21.75 177.18-19.9 176.48-17 175.78-14.1 175.63-10.5L175.63-10.5 175.28-1.5Q175.13 2 173.91 4.4 172.68 6.8 170.73 8.28 168.78 9.75 166.56 10.4 164.33 11.05 162.23 11.05ZM159.08 0.45L159.08 0.45Q156.28 0.45 155.08-1.83 153.88-4.1 153.88-8.2L153.88-8.2Q153.88-11.65 154.93-14.63 155.98-17.6 157.81-19.8 159.63-22 162.06-23.25 164.48-24.5 167.23-24.5L167.23-24.5Q169.38-24.5 171.16-23.93 172.93-23.35 174.18-22.75L174.18-22.75 172.73-17.5Q171.38-18.4 169.71-19.15 168.03-19.9 166.61-20.33 165.18-20.75 164.48-20.75L164.48-20.75Q163.08-20.75 161.96-19.35 160.83-17.95 160.18-15.6 159.53-13.25 159.53-10.35L159.53-10.35Q159.53-7.45 159.96-5.95 160.38-4.45 161.33-4.45L161.33-4.45Q161.98-4.45 163.51-5.85 165.03-7.25 167.18-10.6 169.33-13.95 171.78-19.85L171.78-19.85 173.18-15.4Q170.48-9.4 168.06-5.93 165.63-2.45 163.43-1 161.23 0.45 159.08 0.45ZM187.98 0.8L187.98 0.8Q184.13 0.8 182.03-1.63 179.93-4.05 179.93-8.3L179.93-8.3Q179.93-11.85 180.93-14.8 181.93-17.75 183.73-19.95 185.53-22.15 187.96-23.35 190.38-24.55 193.23-24.55L193.23-24.55Q196.63-24.55 198.43-23.1 200.23-21.65 200.23-18.95L200.23-18.95Q200.23-16.2 198.41-14.15 196.58-12.1 193.16-10.65 189.73-9.2 184.98-8.2L184.98-8.2 184.33-11.2Q187.08-11.55 189.38-12.4 191.68-13.25 193.08-14.68 194.48-16.1 194.48-18.05L194.48-18.05Q194.48-19.4 193.96-20.1 193.43-20.8 192.08-20.8L192.08-20.8Q190.03-20.8 188.61-19.3 187.18-17.8 186.46-15.4 185.73-13 185.73-10.3L185.73-10.3Q185.73-6.65 186.86-5.43 187.98-4.2 190.18-4.2L190.18-4.2Q192.48-4.2 194.21-4.93 195.93-5.65 197.18-6.45L197.18-6.45Q197.58-6.7 197.88-6.85 198.18-7 198.38-7L198.38-7Q198.63-7 198.78-6.8 198.93-6.6 198.93-6.35L198.93-6.35Q198.93-5.45 198.13-4.25 197.33-3.05 195.86-1.9 194.38-0.75 192.38 0.03 190.38 0.8 187.98 0.8ZM226.18 0.7L226.18 0.7Q225.78 0.7 225.4 0.45 225.03 0.2 224.88-0.75L224.88-0.75Q224.33-4.6 223.4-8.7 222.48-12.8 221.4-16.88 220.33-20.95 219.28-24.65L219.28-24.65Q218.63-27 218.13-28.05 217.63-29.1 217.08-29.85L217.08-29.85Q216.53-30.6 215.95-31.1 215.38-31.6 215.38-32.05L215.38-32.05Q215.38-32.55 216.1-33 216.83-33.45 217.85-33.83 218.88-34.2 219.9-34.4 220.93-34.6 221.53-34.6L221.53-34.6Q222.38-34.6 223.05-33.75 223.73-32.9 224.4-30.93 225.08-28.95 225.83-25.5L225.83-25.5 230.38-4.65 228.33-4.05 238.28-24.55Q238.98-26 239.33-26.95 239.68-27.9 239.85-28.73 240.03-29.55 240.13-30.55L240.13-30.55Q240.23-31.5 241.08-32.25 241.93-33 243.03-33.55 244.13-34.1 245.13-34.4 246.13-34.7 246.58-34.7L246.58-34.7Q247.93-34.7 247.93-33.85L247.93-33.85Q247.93-33.3 247.53-32.55L247.53-32.55 232.33-2.6Q231.98-1.9 231.15-1.13 230.33-0.35 229.1 0.18 227.88 0.7 226.18 0.7ZM254.32 0.4L250.82 0.4Q250.12 0.4 249.7-0.2 249.27-0.8 249.07-1.75 248.87-2.7 248.87-3.65L248.87-3.65Q248.87-5.7 249.12-7.6 249.37-9.5 249.57-11.7L249.57-11.7 251.97-34.75 255.47-34.75Q256.77-34.75 257.2-33.77 257.62-32.8 257.62-31.45L257.62-31.45Q257.62-30.25 257.52-29.3 257.42-28.35 257.25-27 257.07-25.65 256.82-23.3L256.82-23.3 254.32 0.4ZM267.07 0.4L263.02 0.4Q262.17 0.4 261.82-0.4 261.47-1.2 261.47-2.55L261.47-2.55Q261.47-3.55 261.62-4.8L261.62-4.8 264.77-34 274.07-34Q280.22-34 283.27-31.95 286.32-29.9 286.32-25.15L286.32-25.15Q286.32-22.25 285-19.85 283.67-17.45 281.6-15.7 279.52-13.95 277.17-13 274.82-12.05 272.77-12.05L272.77-12.05Q272.22-12.05 271.55-12.4 270.87-12.75 270.4-13.3 269.92-13.85 269.92-14.4L269.92-14.4Q269.92-14.95 270.27-15.18 270.62-15.4 271.02-15.45L271.02-15.45Q273.27-15.9 275.25-17.03 277.22-18.15 278.45-20.03 279.67-21.9 279.67-24.5L279.67-24.5Q279.67-26.75 278.6-28 277.52-29.25 275.47-29.75 273.42-30.25 270.37-30.25L270.37-30.25 267.07 0.4Z" opacity="1" transform="matrix(1,0,0,1,0,0)" fill="#000000" class="wordmark-text-0" data-fill-palette-color="primary" id="text-0"></path></svg></g></svg></g><g transform="matrix(1,0,0,1,0,48.743573453670145)"><svg viewBox="0 0 244.43135999999998 24.370288230147782" height="24.370288230147782" width="244.43135999999998"><g transform="matrix(1,0,0,1,0,0)"><svg width="244.43135999999998" viewBox="1.4999999999999998 -36.5 370.1 36.9" height="24.370288230147782" data-palette-color="#12372a"><path d="M18.8 0.4L18.8 0.4Q14.8 0.4 11.53-0.98 8.25-2.35 5.9-5L5.9-5Q3.65-7.6 2.58-10.93 1.5-14.25 1.5-17.8L1.5-17.8Q1.5-21.95 2.83-25.33 4.15-28.7 6.5-31.1L6.5-31.1Q8.9-33.55 12.18-34.9 15.45-36.25 19.3-36.25L19.3-36.25Q21.35-36.25 23.23-35.9 25.1-35.55 26.95-34.95 28.8-34.35 30.7-33.6L30.7-33.6 30.7-29.95 27.2-30.6Q25.65-31.15 23.75-31.6 21.85-32.05 19.65-32.05L19.65-32.05Q15.65-32.05 12.68-30.28 9.7-28.5 8.08-25.3 6.45-22.1 6.45-17.8L6.45-17.8Q6.45-13.85 7.9-10.68 9.35-7.5 12.28-5.65 15.2-3.8 19.5-3.8L19.5-3.8Q21.9-3.8 23.98-4.53 26.05-5.25 28.05-7.05L28.05-7.05Q28.3-7.25 28.5-7.33 28.7-7.4 28.9-7.4L28.9-7.4Q29.3-7.4 29.6-7.1L29.6-7.1 31.5-5Q29.5-2.7 26.38-1.15 23.25 0.4 18.8 0.4ZM27.35-26.2L26.6-31.2 30.7-29.95 30.7-25.4 28.4-25.4Q28-25.4 27.73-25.58 27.45-25.75 27.35-26.2L27.35-26.2ZM62.37-25.75L62.37-25.75Q66.17-25.75 68.85-24.13 71.52-22.5 72.97-19.55 74.42-16.6 74.42-12.7L74.42-12.7Q74.42-8.8 72.97-5.85 71.52-2.9 68.85-1.28 66.17 0.35 62.37 0.35L62.37 0.35Q58.67 0.35 55.95-1.28 53.22-2.9 51.75-5.85 50.27-8.8 50.27-12.7L50.27-12.7Q50.27-16.6 51.75-19.55 53.22-22.5 55.95-24.13 58.67-25.75 62.37-25.75ZM62.37-3.15L62.37-3.15Q66.12-3.15 67.97-5.65 69.82-8.15 69.82-12.65L69.82-12.65Q69.82-15.7 69-17.82 68.17-19.95 66.52-21.1 64.87-22.25 62.37-22.25L62.37-22.25Q59.82-22.25 58.15-21.08 56.47-19.9 55.67-17.75 54.87-15.6 54.87-12.65L54.87-12.65Q54.87-8.3 56.72-5.73 58.57-3.15 62.37-3.15ZM101.2 0.4L101.2 0.4Q99.4 0.4 97.17 0 94.95-0.4 93.35-1L93.35-1 93.35-4.7 95.55-4.2Q96.2-3.75 97.62-3.28 99.05-2.8 100.95-2.8L100.95-2.8Q103.8-2.8 105.15-3.98 106.5-5.15 106.5-6.85L106.5-6.85Q106.5-8.35 105.6-9.15 104.7-9.95 103.2-10.45 101.7-10.95 99.95-11.5L99.95-11.5Q98.15-12.1 96.65-12.9 95.15-13.7 94.25-14.98 93.35-16.25 93.35-18.2L93.35-18.2Q93.35-20.45 94.52-22.15 95.7-23.85 97.72-24.8 99.75-25.75 102.3-25.75L102.3-25.75Q103.75-25.75 105.52-25.4 107.3-25.05 109.4-24.35L109.4-24.35 109.4-21.35 106.75-21.7Q105.7-22 104.62-22.2 103.55-22.4 102.55-22.4L102.55-22.4Q101.1-22.4 99.97-21.95 98.85-21.5 98.2-20.7 97.55-19.9 97.55-18.85L97.55-18.85Q97.55-17.45 98.62-16.63 99.7-15.8 101.25-15.3 102.8-14.8 104.2-14.35L104.2-14.35Q105.85-13.85 107.32-13.05 108.8-12.25 109.75-10.95 110.7-9.65 110.7-7.55L110.7-7.55Q110.7-5.3 109.52-3.5 108.35-1.7 106.22-0.65 104.1 0.4 101.2 0.4ZM106.7-18.65L106.2-22.4 109.4-21.75 109.4-17.85 107.75-17.85Q107.25-17.85 107-18.07 106.75-18.3 106.7-18.65L106.7-18.65ZM96.05-6.8L96.55-3.05 93.35-3.7 93.35-7.6 95-7.6Q95.55-7.6 95.77-7.38 96-7.15 96.05-6.8L96.05-6.8ZM138.57 0.4L138.57 0.4Q135.57 0.4 133.94-1.28 132.32-2.95 132.32-6.1L132.32-6.1 132.32-21.6 129.27-21.6Q128.87-21.6 128.59-21.85 128.32-22.1 128.32-22.6L128.32-22.6 128.32-24.35 132.47-24.9 133.52-32.7Q133.62-33.55 134.52-33.55L134.52-33.55 136.77-33.55 136.77-24.85 144.02-24.85 144.02-21.6 136.77-21.6 136.77-6.4Q136.77-4.8 137.54-4.03 138.32-3.25 139.57-3.25L139.57-3.25Q140.12-3.25 140.77-3.55 141.42-3.85 141.97-4.15 142.52-4.45 142.77-4.45L142.77-4.45Q143.12-4.45 143.37-4.05L143.37-4.05 144.67-1.9Q143.52-0.85 141.89-0.23 140.27 0.4 138.57 0.4ZM169.84 0.4L169.84 0.4Q167.84 0.4 166.24-0.38 164.64-1.15 163.69-2.65 162.74-4.15 162.74-6.35L162.74-6.35Q162.74-7.85 163.57-9.22 164.39-10.6 166.24-11.7L166.24-11.7Q168.09-12.75 171.07-13.45 174.04-14.15 178.34-14.25L178.34-14.25 178.34-16.2Q178.34-19.15 177.07-20.68 175.79-22.2 173.34-22.2L173.34-22.2Q172.04-22.2 170.62-21.53 169.19-20.85 167.99-20.18 166.79-19.5 166.09-19.5L166.09-19.5Q165.64-19.5 165.32-19.75 164.99-20 164.79-20.35L164.79-20.35 163.99-21.75Q166.09-23.8 168.52-24.8 170.94-25.8 173.89-25.8L173.89-25.8Q176.74-25.8 178.69-24.6 180.64-23.4 181.67-21.25 182.69-19.1 182.69-16.2L182.69-16.2 182.69 0 180.74 0Q180.09 0 179.69-0.2 179.29-0.4 179.14-1.05L179.14-1.05 178.64-3.4Q176.64-1.6 174.64-0.6 172.64 0.4 169.84 0.4ZM171.14-2.75L171.14-2.75Q173.39-2.75 175.09-3.65 176.79-4.55 178.34-6.15L178.34-6.15 178.34-11.4Q175.74-11.35 173.64-11.03 171.54-10.7 170.07-10.13 168.59-9.55 167.82-8.68 167.04-7.8 167.04-6.55L167.04-6.55Q167.04-4.55 168.22-3.65 169.39-2.75 171.14-2.75ZM186.29 0L181.19 0 181.74-3.9 185.49-3.1Q185.89-3.05 186.09-2.78 186.29-2.5 186.29-2.05L186.29-2.05 186.29 0ZM240.34 0L235.44 0 235.44-35.85 245.64-35.85Q249.89-35.85 252.79-34.73 255.69-33.6 257.21-31.4 258.74-29.2 258.74-25.9L258.74-25.9Q258.74-23.3 257.66-21.25 256.59-19.2 254.61-17.8 252.64-16.4 249.94-15.75L249.94-15.75Q250.74-15.3 251.54-14.25L251.54-14.25 261.99 0 257.69 0Q256.34 0 255.74-1.05L255.74-1.05 246.44-13.85Q245.99-14.45 245.49-14.7 244.99-14.95 243.99-14.95L243.99-14.95 240.34-14.95 240.34 0ZM240.34-32L240.34-18.5 245.39-18.5Q249.44-18.5 251.74-20.35 254.04-22.2 254.04-25.55L254.04-25.55Q254.04-28.75 251.91-30.38 249.79-32 245.64-32L245.64-32 240.34-32ZM258.34-3.9L257.79 0 255.39-4.55 258.34-3.9ZM236.94 0L231.84 0 231.84-2.05Q231.84-2.5 232.04-2.78 232.24-3.05 232.64-3.1L232.64-3.1 236.39-3.9 236.94 0ZM231.84-35.85L236.94-35.85 236.39-31.95 232.64-32.75Q232.24-32.85 232.04-33.1 231.84-33.35 231.84-33.8L231.84-33.8 231.84-35.85ZM243.94 0L238.84 0 239.39-3.9 243.14-3.1Q243.54-3.05 243.74-2.78 243.94-2.5 243.94-2.05L243.94-2.05 243.94 0ZM262.89 0L257.79 0 258.34-3.9 262.09-3.1Q262.49-3.05 262.69-2.78 262.89-2.5 262.89-2.05L262.89-2.05 262.89 0ZM288.11 0L283.66 0 283.66-25.35 288.11-25.35 288.11 0ZM285.16 0L280.06 0 280.06-2.05Q280.06-2.5 280.26-2.78 280.46-3.05 280.86-3.1L280.86-3.1 284.61-3.9 285.16 0ZM291.71 0L286.61 0 287.16-3.9 290.91-3.1Q291.31-3.05 291.51-2.78 291.71-2.5 291.71-2.05L291.71-2.05 291.71 0ZM280.06-25.35L285.16-25.35 284.61-21.45 280.86-22.25Q280.46-22.35 280.26-22.6 280.06-22.85 280.06-23.3L280.06-23.3 280.06-25.35ZM285.81-30.15L285.81-30.15Q284.56-30.15 283.61-31.1 282.66-32.05 282.66-33.3L282.66-33.3Q282.66-34.6 283.61-35.55 284.56-36.5 285.81-36.5L285.81-36.5Q287.11-36.5 288.06-35.55 289.01-34.6 289.01-33.3L289.01-33.3Q289.01-32.05 288.06-31.1 287.11-30.15 285.81-30.15ZM320.38 0.35L320.38 0.35Q317.08 0.35 314.56-1.28 312.03-2.9 310.61-5.85 309.18-8.8 309.18-12.7L309.18-12.7Q309.18-16.5 310.53-19.45 311.88-22.4 314.53-24.08 317.18-25.75 321.13-25.75L321.13-25.75Q322.68-25.75 324.73-25.23 326.78-24.7 328.63-23.95L328.63-23.95 328.63-21.25 326.03-21.4Q325.03-21.75 323.91-22 322.78-22.25 321.38-22.25L321.38-22.25Q318.83-22.25 317.16-21.08 315.48-19.9 314.63-17.75 313.78-15.6 313.78-12.7L313.78-12.7Q313.78-8.35 315.68-5.73 317.58-3.1 321.13-3.1L321.13-3.1Q323.08-3.1 324.33-3.73 325.58-4.35 326.38-4.98 327.18-5.6 327.63-5.6L327.63-5.6Q327.88-5.6 328.11-5.5 328.33-5.4 328.48-5.2L328.48-5.2 329.73-3.55Q328.08-1.55 325.63-0.6 323.18 0.35 320.38 0.35ZM325.93-18.15L325.43-21.9 328.63-21.25 328.63-17.35 326.98-17.35Q326.48-17.35 326.23-17.57 325.98-17.8 325.93-18.15L325.93-18.15ZM355.15 0.4L355.15 0.4Q353.15 0.4 351.55-0.38 349.95-1.15 349-2.65 348.05-4.15 348.05-6.35L348.05-6.35Q348.05-7.85 348.88-9.22 349.7-10.6 351.55-11.7L351.55-11.7Q353.4-12.75 356.38-13.45 359.35-14.15 363.65-14.25L363.65-14.25 363.65-16.2Q363.65-19.15 362.38-20.68 361.1-22.2 358.65-22.2L358.65-22.2Q357.35-22.2 355.93-21.53 354.5-20.85 353.3-20.18 352.1-19.5 351.4-19.5L351.4-19.5Q350.95-19.5 350.63-19.75 350.3-20 350.1-20.35L350.1-20.35 349.3-21.75Q351.4-23.8 353.83-24.8 356.25-25.8 359.2-25.8L359.2-25.8Q362.05-25.8 364-24.6 365.95-23.4 366.98-21.25 368-19.1 368-16.2L368-16.2 368 0 366.05 0Q365.4 0 365-0.2 364.6-0.4 364.45-1.05L364.45-1.05 363.95-3.4Q361.95-1.6 359.95-0.6 357.95 0.4 355.15 0.4ZM356.45-2.75L356.45-2.75Q358.7-2.75 360.4-3.65 362.1-4.55 363.65-6.15L363.65-6.15 363.65-11.4Q361.05-11.35 358.95-11.03 356.85-10.7 355.38-10.13 353.9-9.55 353.13-8.68 352.35-7.8 352.35-6.55L352.35-6.55Q352.35-4.55 353.53-3.65 354.7-2.75 356.45-2.75ZM371.6 0L366.5 0 367.05-3.9 370.8-3.1Q371.2-3.05 371.4-2.78 371.6-2.5 371.6-2.05L371.6-2.05 371.6 0Z" opacity="1" transform="matrix(1,0,0,1,0,0)" fill="#000000" class="slogan-text-1" data-fill-palette-color="secondary" id="text-1"></path></svg></g></svg></g></svg></g></svg></g></svg></g></svg></g></svg></g><g><path d="M0 123.6c0-68.262 55.338-123.6 123.6-123.6 53.812 0 99.592 34.389 116.563 82.388l-1.888 0c-16.893-46.999-61.859-80.61-114.675-80.61-67.28 0-121.822 54.542-121.822 121.822 0 67.28 54.542 121.822 121.822 121.822 52.816 0 97.782-33.611 114.675-80.61h1.888c-16.971 48-62.751 82.388-116.563 82.388-68.262 0-123.6-55.338-123.6-123.6z" fill="#000000" stroke="transparent" data-fill-palette-color="tertiary"></path></g></svg></g><defs></defs></svg><rect width="395.52" height="247.2" fill="none" stroke="none" visibility="hidden"></rect></g></svg></g></svg>